<mxfile host="Electron" agent="Mozilla/5.0 (Windows NT 10.0; Win64; x64) AppleWebKit/537.36 (KHTML, like Gecko) draw.io/28.1.2 Chrome/138.0.7204.243 Electron/37.4.0 Safari/537.36" version="28.1.2">
  <diagram name="Page-1" id="XTXgYk2QvUW0YKuDjo5E">
    <mxGraphModel dx="1464" dy="806" grid="0" gridSize="10" guides="1" tooltips="1" connect="1" arrows="1" fold="1" page="1" pageScale="1" pageWidth="827" pageHeight="1169" math="0" shadow="0">
      <root>
        <mxCell id="0" />
        <mxCell id="1" parent="0" />
        <mxCell id="lPogth2i2HXHcxFlAJ2V-1" value="" style="triangle;whiteSpace=wrap;html=1;rotation=-90;" vertex="1" parent="1">
          <mxGeometry x="138" y="501" width="20" height="30" as="geometry" />
        </mxCell>
        <mxCell id="lPogth2i2HXHcxFlAJ2V-5" value="" style="triangle;whiteSpace=wrap;html=1;rotation=-180;" vertex="1" parent="1">
          <mxGeometry x="324" y="394" width="20" height="30" as="geometry" />
        </mxCell>
        <mxCell id="lPogth2i2HXHcxFlAJ2V-10" value="" style="endArrow=none;html=1;rounded=0;exitX=0;exitY=0.5;exitDx=0;exitDy=0;entryX=0.5;entryY=0;entryDx=0;entryDy=0;" edge="1" parent="1" source="lPogth2i2HXHcxFlAJ2V-1" target="lPogth2i2HXHcxFlAJ2V-22">
          <mxGeometry width="50" height="50" relative="1" as="geometry">
            <mxPoint x="440" y="560" as="sourcePoint" />
            <mxPoint x="259" y="628" as="targetPoint" />
          </mxGeometry>
        </mxCell>
        <mxCell id="lPogth2i2HXHcxFlAJ2V-11" value="" style="endArrow=none;html=1;rounded=0;exitX=0;exitY=0.5;exitDx=0;exitDy=0;entryX=0.5;entryY=0;entryDx=0;entryDy=0;" edge="1" parent="1" source="lPogth2i2HXHcxFlAJ2V-5" target="lPogth2i2HXHcxFlAJ2V-21">
          <mxGeometry width="50" height="50" relative="1" as="geometry">
            <mxPoint x="440" y="560" as="sourcePoint" />
            <mxPoint x="538" y="452" as="targetPoint" />
          </mxGeometry>
        </mxCell>
        <mxCell id="lPogth2i2HXHcxFlAJ2V-17" value="" style="endArrow=classic;html=1;rounded=0;exitX=0.5;exitY=0;exitDx=0;exitDy=0;entryX=0.5;entryY=1;entryDx=0;entryDy=0;" edge="1" parent="1" source="lPogth2i2HXHcxFlAJ2V-23" target="lPogth2i2HXHcxFlAJ2V-20">
          <mxGeometry width="50" height="50" relative="1" as="geometry">
            <mxPoint x="208" y="200" as="sourcePoint" />
            <mxPoint x="351.5" y="153" as="targetPoint" />
          </mxGeometry>
        </mxCell>
        <mxCell id="lPogth2i2HXHcxFlAJ2V-20" value="&lt;p style=&quot;margin:0px;margin-top:4px;text-align:center;&quot;&gt;Owner&lt;/p&gt;&lt;hr size=&quot;1&quot; style=&quot;border-style:solid;&quot;&gt;&lt;p style=&quot;margin:0px;margin-left:4px;&quot;&gt;- name: String&lt;/p&gt;&lt;p style=&quot;margin:0px;margin-left:4px;&quot;&gt;&lt;span style=&quot;background-color: transparent; color: light-dark(rgb(0, 0, 0), rgb(255, 255, 255));&quot;&gt;- address: String&lt;/span&gt;&lt;/p&gt;&lt;hr size=&quot;1&quot; style=&quot;border-style:solid;&quot;&gt;&lt;p style=&quot;margin:0px;margin-left:4px;&quot;&gt;+ Owner(name: String, address: String)&lt;/p&gt;&lt;p style=&quot;margin:0px;margin-left:4px;&quot;&gt;&lt;span style=&quot;background-color: transparent; color: light-dark(rgb(0, 0, 0), rgb(255, 255, 255));&quot;&gt;+ getName(): String&lt;/span&gt;&lt;/p&gt;&lt;p style=&quot;margin:0px;margin-left:4px;&quot;&gt;&lt;span style=&quot;background-color: transparent; color: light-dark(rgb(0, 0, 0), rgb(255, 255, 255));&quot;&gt;+ getAddress(): String&lt;/span&gt;&lt;/p&gt;&lt;p style=&quot;margin:0px;margin-left:4px;&quot;&gt;&lt;span style=&quot;background-color: transparent; color: light-dark(rgb(0, 0, 0), rgb(255, 255, 255));&quot;&gt;+ toString(): String&lt;/span&gt;&lt;/p&gt;" style="verticalAlign=top;align=left;overflow=fill;html=1;whiteSpace=wrap;" vertex="1" parent="1">
          <mxGeometry x="228" y="36" width="218" height="140" as="geometry" />
        </mxCell>
        <mxCell id="lPogth2i2HXHcxFlAJ2V-21" value="&lt;p style=&quot;margin:0px;margin-top:4px;text-align:center;&quot;&gt;SportsCar&lt;/p&gt;&lt;hr size=&quot;1&quot; style=&quot;border-style:solid;&quot;&gt;&lt;p style=&quot;margin:0px;margin-left:4px;&quot;&gt;- horsepower: int&lt;/p&gt;&lt;hr size=&quot;1&quot; style=&quot;border-style:solid;&quot;&gt;&lt;p style=&quot;margin:0px;margin-left:4px;&quot;&gt;+ SportsCar(make: String, model: String, year: int, vin: String, owner: Owner, horsepower: int)&amp;nbsp;&lt;/p&gt;&lt;p style=&quot;margin:0px;margin-left:4px;&quot;&gt;+ getHorsepower(): int&lt;/p&gt;&lt;p style=&quot;margin:0px;margin-left:4px;&quot;&gt;+ toString(): String&lt;/p&gt;" style="verticalAlign=top;align=left;overflow=fill;html=1;whiteSpace=wrap;" vertex="1" parent="1">
          <mxGeometry x="386" y="531" width="274" height="129" as="geometry" />
        </mxCell>
        <mxCell id="lPogth2i2HXHcxFlAJ2V-22" value="&lt;p style=&quot;margin:0px;margin-top:4px;text-align:center;&quot;&gt;SedanCar&lt;/p&gt;&lt;hr size=&quot;1&quot; style=&quot;border-style:solid;&quot;&gt;&lt;p style=&quot;margin:0px;margin-left:4px;&quot;&gt;- doors: int&lt;/p&gt;&lt;p style=&quot;margin:0px;margin-left:4px;&quot;&gt;- trunkSize: int&lt;/p&gt;&lt;hr size=&quot;1&quot; style=&quot;border-style:solid;&quot;&gt;&lt;p style=&quot;margin:0px;margin-left:4px;&quot;&gt;+ SedanCar (make: String, model: String, year: int, vin: String, owner: Owner, door: int, truckSize: int)&lt;/p&gt;&lt;p style=&quot;margin:0px;margin-left:4px;&quot;&gt;+ getDoors(): int&lt;/p&gt;&lt;p style=&quot;margin:0px;margin-left:4px;&quot;&gt;+ getTrunkSize(): int&lt;/p&gt;&lt;p style=&quot;margin:0px;margin-left:4px;&quot;&gt;+ toString(): String&lt;/p&gt;" style="verticalAlign=top;align=left;overflow=fill;html=1;whiteSpace=wrap;" vertex="1" parent="1">
          <mxGeometry x="36" y="589" width="284" height="167" as="geometry" />
        </mxCell>
        <mxCell id="lPogth2i2HXHcxFlAJ2V-23" value="&lt;p style=&quot;margin:0px;margin-top:4px;text-align:center;&quot;&gt;Car&lt;/p&gt;&lt;hr size=&quot;1&quot; style=&quot;border-style:solid;&quot;&gt;&lt;p style=&quot;margin:0px;margin-left:4px;&quot;&gt;- make: String&lt;/p&gt;&lt;p style=&quot;margin:0px;margin-left:4px;&quot;&gt;- model: String&lt;/p&gt;&lt;p style=&quot;margin:0px;margin-left:4px;&quot;&gt;- year: int&lt;/p&gt;&lt;p style=&quot;margin:0px;margin-left:4px;&quot;&gt;- vin: String&lt;/p&gt;&lt;p style=&quot;margin:0px;margin-left:4px;&quot;&gt;- owner: Owner&lt;br&gt;&lt;/p&gt;&lt;hr size=&quot;1&quot; style=&quot;border-style:solid;&quot;&gt;&lt;p style=&quot;margin:0px;margin-left:4px;&quot;&gt;+ Car(make: String, model: String, year: int, vin: String, owner: Owner)&amp;nbsp;&lt;/p&gt;&lt;p style=&quot;margin:0px;margin-left:4px;&quot;&gt;+ getMake(): String&lt;/p&gt;&lt;p style=&quot;margin:0px;margin-left:4px;&quot;&gt;+ getModel(): String&lt;/p&gt;&lt;p style=&quot;margin:0px;margin-left:4px;&quot;&gt;+ getYear(): int&lt;/p&gt;&lt;p style=&quot;margin:0px;margin-left:4px;&quot;&gt;+ getVin(): String&amp;nbsp;&lt;/p&gt;&lt;p style=&quot;margin:0px;margin-left:4px;&quot;&gt;+ getOwner(): Owner&lt;/p&gt;&lt;p style=&quot;margin:0px;margin-left:4px;&quot;&gt;+ toString(): String&lt;/p&gt;" style="verticalAlign=top;align=left;overflow=fill;html=1;whiteSpace=wrap;" vertex="1" parent="1">
          <mxGeometry x="27" y="253" width="297" height="251" as="geometry" />
        </mxCell>
        <mxCell id="lPogth2i2HXHcxFlAJ2V-24" value="&lt;p style=&quot;margin:0px;margin-top:4px;text-align:center;&quot;&gt;UseCars&lt;/p&gt;&lt;hr size=&quot;1&quot; style=&quot;border-style:solid;&quot;&gt;&lt;p style=&quot;margin:0px;margin-left:4px;&quot;&gt;+ main(String args): void&amp;nbsp;&lt;/p&gt;&lt;p style=&quot;margin:0px;margin-left:4px;&quot;&gt;&lt;br&gt;&lt;/p&gt;" style="verticalAlign=top;align=left;overflow=fill;html=1;whiteSpace=wrap;" vertex="1" parent="1">
          <mxGeometry x="440" y="271" width="190" height="54" as="geometry" />
        </mxCell>
        <mxCell id="lPogth2i2HXHcxFlAJ2V-29" value="" style="endArrow=none;dashed=1;html=1;rounded=0;entryX=0.5;entryY=1;entryDx=0;entryDy=0;" edge="1" parent="1" target="lPogth2i2HXHcxFlAJ2V-20">
          <mxGeometry width="50" height="50" relative="1" as="geometry">
            <mxPoint x="528" y="268" as="sourcePoint" />
            <mxPoint x="362.002" y="143.99999999999997" as="targetPoint" />
          </mxGeometry>
        </mxCell>
        <mxCell id="lPogth2i2HXHcxFlAJ2V-30" value="" style="endArrow=classic;html=1;rounded=0;entryX=0.5;entryY=0;entryDx=0;entryDy=0;" edge="1" parent="1" target="lPogth2i2HXHcxFlAJ2V-24">
          <mxGeometry width="50" height="50" relative="1" as="geometry">
            <mxPoint x="527" y="268" as="sourcePoint" />
            <mxPoint x="589" y="180" as="targetPoint" />
          </mxGeometry>
        </mxCell>
        <mxCell id="lPogth2i2HXHcxFlAJ2V-31" value="" style="endArrow=none;dashed=1;html=1;rounded=0;exitX=1;exitY=0.25;exitDx=0;exitDy=0;" edge="1" parent="1" source="lPogth2i2HXHcxFlAJ2V-23">
          <mxGeometry width="50" height="50" relative="1" as="geometry">
            <mxPoint x="420" y="328" as="sourcePoint" />
            <mxPoint x="428" y="300" as="targetPoint" />
          </mxGeometry>
        </mxCell>
        <mxCell id="lPogth2i2HXHcxFlAJ2V-33" value="" style="endArrow=classic;html=1;rounded=0;entryX=0;entryY=0.5;entryDx=0;entryDy=0;" edge="1" parent="1" target="lPogth2i2HXHcxFlAJ2V-24">
          <mxGeometry width="50" height="50" relative="1" as="geometry">
            <mxPoint x="426" y="300" as="sourcePoint" />
            <mxPoint x="470" y="278" as="targetPoint" />
          </mxGeometry>
        </mxCell>
        <mxCell id="lPogth2i2HXHcxFlAJ2V-34" value="1" style="text;html=1;align=center;verticalAlign=middle;resizable=0;points=[];autosize=1;strokeColor=none;fillColor=none;" vertex="1" parent="1">
          <mxGeometry x="281" y="172" width="25" height="26" as="geometry" />
        </mxCell>
        <mxCell id="lPogth2i2HXHcxFlAJ2V-35" value="*" style="text;html=1;align=center;verticalAlign=middle;resizable=0;points=[];autosize=1;strokeColor=none;fillColor=none;" vertex="1" parent="1">
          <mxGeometry x="166.5" y="231" width="23" height="26" as="geometry" />
        </mxCell>
      </root>
    </mxGraphModel>
  </diagram>
</mxfile>
